arm26_optimize_states
version=1
nRows=20
nColumns=17
inDegrees=yes

# SIMM Motion File Header:
name arm26_optimize_states
datacolumns 17
datarows 20
otherdata 1
range 0.48681014 0.49894428
endheader
time	r_shoulder_elev	r_elbow_flex	r_shoulder_elev_u	r_elbow_flex_u	TRIlong.activation	TRIlong.fiber_length	TRIlat.activation	TRIlat.fiber_length	TRImed.activation	TRImed.fiber_length	BIClong.activation	BIClong.fiber_length	BICshort.activation	BICshort.fiber_length	BRA.activation	BRA.fiber_length
      0.48681014	    -50.62443054	    -30.79486845	   -210.93123795	   -177.76275909	      0.01006796	      0.10980967	      0.08110065	      0.06788323	      0.18169609	      0.06263771	      0.10000183	      0.15590015	      0.01006796	      0.16848906	      0.10918992	      0.08241949
      0.48726707	    -50.72062887	    -30.87619216	   -210.12912483	   -178.19094891	      0.01006756	      0.10980547	      0.08110065	      0.06790462	      0.18169609	      0.06265891	      0.10000183	      0.15590537	      0.01006756	      0.16852284	      0.10918992	      0.08240199
      0.48793348	    -50.86026976	    -30.99514649	   -208.95892208	   -178.81283346	      0.01006699	      0.10979998	      0.08110065	      0.06793610	      0.18169609	      0.06269009	      0.10000183	      0.15591269	      0.01006699	      0.16858694	      0.10918992	      0.08237633
      0.48844563	    -50.96705878	    -31.08684617	   -208.06233990	   -179.28159099	      0.01006655	      0.10979628	      0.08110065	      0.06796051	      0.18169609	      0.06271428	      0.10000183	      0.15591809	      0.01006655	      0.16862565	      0.10918992	      0.08235650
      0.48910088	    -51.10301647	    -31.20451639	   -206.91477071	   -179.87890632	      0.01006599	      0.10979218	      0.08110065	      0.06799202	      0.18169609	      0.06274550	      0.10000183	      0.15592472	      0.01006599	      0.16869997	      0.10918992	      0.08233097
      0.48975614	    -51.23822430	    -31.32257186	   -205.77407691	   -180.45634275	      0.01006543	      0.10978879	      0.08110065	      0.06802384	      0.18169609	      0.06277703	      0.10000183	      0.15593104	      0.01006543	      0.16873733	      0.10918992	      0.08230529
      0.49041139	    -51.37268390	    -31.44100627	   -204.62964162	   -181.03857466	      0.01006488	      0.10978612	      0.08110065	      0.06805598	      0.18169609	      0.06280887	      0.10000183	      0.15593705	      0.01006488	      0.16884662	      0.10918992	      0.08227944
      0.49106664	    -51.50640107	    -31.55980356	   -203.50530150	   -181.57023570	      0.01006434	      0.10978415	      0.08110065	      0.06808841	      0.18169609	      0.06284101	      0.10000183	      0.15594275	      0.01006434	      0.16885821	      0.10918992	      0.08225343
      0.49148995	    -51.59239218	    -31.63674098	   -202.77064938	   -181.93092435	      0.01006399	      0.10978325	      0.08110065	      0.06810953	      0.18169609	      0.06286194	      0.10000183	      0.15594626	      0.01006399	      0.16888547	      0.10918992	      0.08223654
      0.49223650	    -51.74328471	    -31.77279706	   -201.47488314	   -182.56352931	      0.01006338	      0.10978237	      0.08110065	      0.06814708	      0.18169609	      0.06289915	      0.10000183	      0.15595215	      0.01006338	      0.16894466	      0.10918992	      0.08220659
      0.49287932	    -51.87244004	    -31.89032688	   -200.35971323	   -183.10296989	      0.01006285	      0.10978230	      0.08110065	      0.06817973	      0.18169609	      0.06293150	      0.10000183	      0.15595690	      0.01006285	      0.16901905	      0.10918992	      0.08218063
      0.49352215	    -52.00088118	    -32.00819607	   -199.25250860	   -183.62024655	      0.01006233	      0.10978262	      0.08110065	      0.06821266	      0.18169609	      0.06296414	      0.10000183	      0.15596136	      0.01006233	      0.16904971	      0.10918992	      0.08215452
      0.49431611	    -52.15853446	    -32.15423797	   -197.88053423	   -184.26450740	      0.01006170	      0.10978356	      0.08110065	      0.06825373	      0.18169609	      0.06300484	      0.10000183	      0.15596647	      0.01006170	      0.16912758	      0.10918992	      0.08212206
      0.49497727	    -52.28899126	    -32.27623853	   -196.74485893	   -184.78085897	      0.01006118	      0.10978485	      0.08110065	      0.06828827	      0.18169609	      0.06303907	      0.10000183	      0.15597039	      0.01006118	      0.16916374	      0.10918992	      0.08209485
      0.49563844	    -52.41869655	    -32.39858070	   -195.60692761	   -185.29861351	      0.01006066	      0.10978665	      0.08110065	      0.06832310	      0.18169609	      0.06307359	      0.10000183	      0.15597401	      0.01006066	      0.16922623	      0.10918992	      0.08206748
      0.49629961	    -52.54765109	    -32.52126016	   -194.47484710	   -185.79889026	      0.01006014	      0.10978901	      0.08110065	      0.06835823	      0.18169609	      0.06310841	      0.10000183	      0.15597733	      0.01006014	      0.16926557	      0.10918992	      0.08203995
      0.49696078	    -52.67585704	    -32.64426935	   -193.34157394	   -186.29810749	      0.01005963	      0.10979196	      0.08110065	      0.06839365	      0.18169609	      0.06314352	      0.10000183	      0.15598035	      0.01005963	      0.16932517	      0.10918992	      0.08201227
      0.49762194	    -52.80331518	    -32.76760391	   -192.21377332	   -186.78073884	      0.01005913	      0.10979555	      0.08110065	      0.06842936	      0.18169609	      0.06317892	      0.10000183	      0.15598307	      0.01005913	      0.16936515	      0.10918992	      0.08198442
      0.49828311	    -52.93002773	    -32.89125614	   -191.08533375	   -187.26104983	      0.01005863	      0.10979982	      0.08110065	      0.06846536	      0.18169609	      0.06321461	      0.10000183	      0.15598550	      0.01005863	      0.16942073	      0.10918992	      0.08195641
      0.49894428	    -53.05599540	    -33.01522182	   -189.96159557	   -187.72660275	      0.01005813	      0.10980482	      0.08110065	      0.06850165	      0.18169609	      0.06325059	      0.10000183	      0.15598764	      0.01005813	      0.16946232	      0.10918992	      0.08192825
